<?xml version="1.0" standalone="no"?>
<!DOCTYPE svg PUBLIC "-//W3C//DTD SVG 20010904//EN"
 "http://www.w3.org/TR/2001/REC-SVG-20010904/DTD/svg10.dtd">
<svg version="1.0" xmlns="http://www.w3.org/2000/svg"
 width="928.000000pt" height="928.000000pt" viewBox="0 0 928.000000 928.000000"
 preserveAspectRatio="xMidYMid meet">

<g transform="translate(0.000000,928.000000) scale(0.100000,-0.100000)"
fill="#000000" stroke="none">
<path d="M4605 7551 c-39 -10 -187 -89 -346 -184 -68 -40 -151 -89 -184 -107
-73 -42 -160 -122 -186 -172 -16 -31 -106 -286 -179 -508 -10 -30 -71 -208
-135 -395 -64 -187 -146 -427 -182 -532 -36 -106 -69 -193 -73 -193 -5 0 -49
28 -97 62 -140 97 -842 568 -848 568 -3 0 -5 -235 -5 -522 1 -424 -1 -523 -12
-528 -7 -4 -40 -11 -73 -15 -86 -10 -317 -58 -480 -100 -329 -84 -520 -166
-605 -258 -76 -81 -16 -195 145 -274 154 -76 484 -170 765 -218 252 -43 243
-40 235 -65 -51 -161 -75 -318 -75 -500 0 -436 182 -874 504 -1209 240 -250
534 -441 862 -559 139 -50 399 -107 564 -123 154 -14 447 -7 583 16 194 32
296 60 532 147 71 27 277 135 369 195 188 122 418 335 532 493 85 117 173 271
213 375 5 11 13 31 19 45 138 310 164 756 63 1079 -10 33 -16 63 -11 66 4 2
67 14 141 25 282 44 617 129 778 199 201 87 275 162 251 253 -24 86 -150 166
-387 244 -200 66 -534 145 -767 181 l-39 6 7 525 c6 432 5 524 -6 520 -7 -3
-117 -75 -243 -160 -578 -389 -698 -468 -702 -464 -2 2 -13 39 -24 83 -24 97
-82 307 -119 433 -16 52 -54 187 -85 300 -31 113 -74 265 -96 339 -21 74 -39
138 -39 142 0 5 89 8 198 6 l197 -2 110 46 c118 49 489 201 619 253 43 17 79
35 80 40 0 5 -10 13 -24 17 -167 50 -490 139 -845 234 -27 8 -133 37 -235 65
-102 28 -228 63 -280 77 -52 14 -117 32 -145 40 -61 17 -199 25 -240 14z"/>
</g>
</svg>
